<svg width="364" height="312" viewBox="0 0 364 312" xmlns="http://www.w3.org/2000/svg" xmlns:xlink="http://www.w3.org/1999/xlink"><title>Group 29</title><defs><path d="M3.048 2.84C5.392.429 8.902-.741 13.303.504c11.284 3.193 13.161 22.638.682 25.484C2.372 28.637-4.235 10.332 3.048 2.84z" id="a"/><path d="M19.622 1.367c3.026 1.3 5.849 3.11 9.017 4.01 4.819 1.368 9.929.413 14.863-.74l.984-.232c1.637-.39 3.25-.787 4.823-1.11 4.785-.985 10.017-1.5 14.735.08 5.253 1.756 7.751 5.598 10.62 10.045 2.45 3.801 6.17 6.67 9.131 10.05 3.97 4.53 5.177 10.26 3.84 16.098-1.485 6.491-4.674 12.291-7.993 17.99l-.799 1.366c-.8 1.364-1.599 2.726-2.377 4.092-2.737 4.807-5.932 10.297-10.15 14.38-2.773 2.684-5.989 4.76-9.807 5.632-7.272 1.663-14.102-1.538-20.166-5.225-6.482-3.939-12.946-7.93-19.06-12.428-4.372-3.215-8.847-6.632-11.57-11.437-3.159-5.57-3.343-12.268-2.699-18.487.288-2.776-.46-5.366-1.256-7.958l-.281-.916C1.15 25.508.835 24.436.6 23.345-1.1 15.463.64 6.157 7.993 1.636c3.753-2.308 7.679-1.966 11.629-.269z" id="c"/><path d="M48.11 2.333C51.163.541 55.928-.715 59.441.453 61.075.996 62 2.676 62.769 4.216c7.588 15.191 2.154 31.705-6.579 45.16A266.543 266.543 0 0 1 33.198 79.76C27.359 86.425 8.176 108.488 1.2 90.476-.413 86.31-.284 81.436.9 77.177c1.215-4.375 3.395-8.4 5.654-12.35l.755-1.314c6.215-10.794 11.585-22.049 17.77-32.86C31.03 20.244 37.514 8.548 48.109 2.332z" id="e"/><path d="M15.288.162c.462.22.759.674 1.025 1.111 1.984 3.258 3.568 6.806 5.994 9.778 2.638 3.232 5.903 5.65 9.46 7.808 1.817 1.102 3.69 2.113 5.572 3.106l1.884.99c3.454 1.815 6.89 3.652 10.022 5.967 3.907 2.888 4.01 9.386 3.058 13.896-.544 2.582-1.76 5.077-3.55 6.99a11.415 11.415 0 0 1-3.26 2.449c-3.182 1.577-6.995 1.5-10.39.458-3.396-1.042-6.444-2.974-9.345-5.023-7.846-5.544-17.55-12.877-22.22-21.397C.66 21.043-1.476 14.842 1.278 9.11 3.645 4.184 8.454.546 13.956.028c.45-.043.924-.061 1.332.134z" id="g"/><path d="M35.986 1.16c9.051-1.97 19.151-1.12 28.233.257 8.613 1.307 16.84 5.338 24.886 8.337 4.126 1.537 9.167 3.7 11.996 6.805 6.266 6.875 4.832 17.202 2.067 27.296-1.666 6.085-3.811 11.871-5.034 16.296a227.405 227.405 0 0 0-7.875 47.645l-.05.886c-.22 3.848-.51 7.787-2.547 11.193-2.319 3.877-6.467 5.98-11.299 5.124-5.742-1.018-10.415-1.664-16.53-1.655l-44.1.066c-4.46.007-10.651-.05-12.93-4.083-1.155-2.046-1.19-4.412-1.182-6.687.077-23.149-3.144-46.344-.71-69.48.832-7.905 2.322-15.768 4.779-23.423 2.213-6.899 7.128-9.154 14.029-12.509 5.14-2.499 10.519-4.816 16.267-6.068z" id="i"/><path d="M32.05.942c4.24-1.536 9.129-1.178 13.1.958 1.817.977 3.427 2.292 4.967 3.665C59.81 14.208 66.713 25.36 72.853 36.67c3.795 6.99 7.68 13.903 11.524 20.835 2.232 4.026 4.45 8.06 6.63 12.117 4.42 8.237 12.63 26.538-.513 31.06-.402.138-.793.26-1.175.364-3.148 1.25-6.572 1.493-9.935 1.72l-34.5 2.328a6119.9 6119.9 0 0 0-17.079 1.172c-5.437.378-10.957 1.14-16.408 1.142-2.306.002-4.879-.416-6.814-1.917C1.893 103.404.28 98.956.025 95.478c-.132-1.806.232-4 1.65-5.12.758-.6 1.722-.784 2.65-.953 4.37-.793 8.72-1.62 13.094-2.358 1.157-.195 2.315-.383 3.475-.563a299.907 299.907 0 0 0 16.85-3.108c7.905-1.693 15.843-3.215 23.838-4.334a278.775 278.775 0 0 1-27.74-43.78C29.676 27.091 18.618 5.805 32.05.941z" id="k"/><path id="m" d="M0 0h54.529v6.14H0z"/><path d="M93.104 0a3.947 3.947 0 0 1 3.872 3.185l13.988 71.864a3.946 3.946 0 0 1-3.871 4.706H17.195a3.946 3.946 0 0 1-3.872-3.185L0 3.52l.716-1.893C1.426.655 2.562 0 3.885 0h89.218z" id="o"/><path d="M93.165 0a3.946 3.946 0 0 1 3.872 3.185l13.761 70.051a3.945 3.945 0 0 1-3.871 4.705H17.709a3.946 3.946 0 0 1-3.872-3.185L.075 4.706A3.946 3.946 0 0 1 3.947 0h89.218z" id="q"/><path d="M7.046 0c4.658 0 9.173 3.83 10.085 8.555.911 4.726-2.181 8.556-6.907 8.556S.983 13.281.139 8.555C-.705 3.83 2.387 0 7.046 0z" id="s"/><path d="M21.084 0a59.724 59.724 0 0 1 19.299 3.12c1.342.452 2.82.067 4.158-.184.991-.185 2.026-.37 2.994-.087 1.083.317 1.922 1.174 2.581 2.089 1.213 1.683 2.14 3.91 1.996 6.024l-.024.333c-.112 1.504-.338 3.026-2.097 3.34-.765.137-1.553.052-2.327.133-.193.02-.383.05-.57.089-2.72.56-4.843 2.948-7.549 3.747-1.93.57-3.997.266-5.852-.43-1.706-.64-3.44-.982-5.191-1.542-1.365-.437-3.208-1.358-4.674-1.052-3.843.799-7.675 3.533-11.158 5.308-.783.4-1.64.81-2.504.647-.864-.164-1.584-1.211-1.093-1.94-1.002.936-2.328 2.808-3.945 2.082-.661-.296-1.06-1.172-.694-1.797-.555.609-1.139 1.238-1.906 1.54-.767.303-1.773.172-2.225-.518-.213-.324-.277-.724-.296-1.111-.066-1.334.336-2.651.893-3.865C3.643 9.939 9.846 5.498 15.125 1.932c.934-.631 1.885-1.27 2.963-1.6.964-.294 1.987-.327 2.996-.331z" id="u"/><path d="M9.107 7.7c14.035-13.41 37.34-8.795 43.443 9.885 1.415 4.33 2.173 9.543 2.206 15.04.052 8.802-1.758 18.328-5.715 26.108.093 2.381-.11 4.798-.265 7.145a68.56 68.56 0 0 0 .113 10.427c.314 3.62 2.08 7.653.96 11.24-1.234 3.95-4.528 6.436-8.527 7.72-5.347 1.714-11.955 1.278-16.583-.68-6.45-2.732-8.39-8.404-6.319-14.368.548-1.577 1.173-3.155 1.427-4.802.11-.709.141-1.419.164-2.13a17.828 17.828 0 0 1-4.08-2.32C-.554 58.404-6.543 22.651 9.107 7.698z" id="w"/><path d="M16.798.074c11.044-.696 22.451 3.543 30.01 11.698 2.617 2.825 4.816 6.11 5.945 9.792 1.034 3.375 1.14 6.954 1.237 10.483.009.332.02.667.035 1.003l.03.674.016.338.034.679.05 1.022.03.683c.209 5.12.006 10.23-4.33 13.626-1.961 1.538-4.227 2.629-6.474 3.709-2.165 1.04-2.135 3.335-4.707 3.066-.438-.045-3.145-10.807-4.037-15.202-.407-2.004-.85-4.077-1.599-5.976-.623-1.58-1.46-3.04-2.665-4.242-2.101-2.094-5.021-3.088-7.775-4.193A71.605 71.605 0 0 1 4.766 16.873c-2.768-2.197-6.862-6.809-3.502-10.204C5.16 2.732 11.33.418 16.798.074z" id="y"/><path d="M13.435 11.841c-.51 2.04-1.316 4.03-2.582 5.708-1.705 2.261-6.585 6.012-9.395 3.538C.182 19.965.05 18.058.012 16.36-.094 11.807.43 3.552 5.29.895c7.17-3.92 9.377 6.006 8.144 10.946z" id="A"/><path d="M8.85 0c1.752 1.532 2.6 4.016 2.715 6.42.11 2.429-.504 4.895-1.436 7.062-1.84 4.395-4.599 7.964-5.672 11.823-.609 1.91-.758 3.761-.326 5.613.36 1.899 1.354 3.816 2.247 5.894.948 2.029 1.855 4.375 2.057 6.787.204 2.377-.34 5.062-2.11 6.62 1.008-2.085.828-4.275.192-6.262-.611-2.031-1.702-3.781-2.883-5.693-1.194-1.886-2.412-3.941-3.158-6.416-.757-2.503-.54-5.309.155-7.682 1.503-4.841 4.58-8.408 6.7-12.058 1.063-1.847 1.933-3.722 2.276-5.798.386-2.056.253-4.246-.756-6.31z" id="C"/><path d="M27.187 0v8.963a11.766 11.766 0 0 1 1.899-.156c6.52 0 11.804 5.362 11.804 11.976 0 6.615-5.285 11.976-11.804 11.976-.647 0-1.28-.054-1.899-.156v.668a5.668 5.668 0 0 1-5.667 5.667H5.668A5.668 5.668 0 0 1 0 33.271V0h27.187zm1.899 13.078a7.48 7.48 0 0 0-1.899.243v14.925a7.525 7.525 0 0 0 1.899.243c4.195 0 7.595-3.45 7.595-7.706 0-4.255-3.4-7.705-7.595-7.705z" id="E"/><path d="M1.47 0c.808 0 1.47.661 1.47 1.469v18.95c0 .76-.586 1.39-1.33 1.462l-.14.007c-.809 0-1.47-.661-1.47-1.469V1.469C0 .661.661 0 1.47 0z" id="G"/><path d="M35.609 0l1.876 1.098a21.148 21.148 0 0 1-5.802 6.396c-1.267.917-2.7 1.741-4.378 2.519-4.517 2.092-9.448 3.16-14.49 3.16-.244 0-.488-.008-.732-.013a4.758 4.758 0 0 1-1.057 1.429C9.17 16.321 6.875 16.22 4.56 15.698c-2.898-.653-6.49-4.068-3.33-6.779 2.622-2.25 8.452-2.057 10.375.278.464.564.727 1.177.822 1.798 4.863.056 9.62-.941 13.965-2.954 1.55-.718 2.863-1.473 4.016-2.307A18.969 18.969 0 0 0 35.609 0z" id="I"/><path d="M27.591 3.966c15.599 7.136 16.567 28.561 14.632 45.277l-2.699-.312c1.83-15.822 1.05-36.037-13.063-42.494C19.776 3.38 13.678 1.187 2.81 3.325 1.223 3.112 0 2.523 0 2.523c9.828-4.8 20.377-1.858 27.591 1.443z" id="K"/><path d="M22.645.067c.64.04 1.278.107 1.915.203a18.21 18.21 0 0 1 1.899.376c1.256.313 2.485.78 3.624 1.427.568.333 1.11.712 1.612 1.138.497.431.958.903 1.377 1.412.41.516.775 1.07 1.083 1.656.304.59.54 1.215.7 1.862.167.647.224 1.321.207 1.99-.01.673-.145 1.323-.285 1.945-.143.623-.298 1.225-.393 1.823a6.685 6.685 0 0 0-.052 1.79c.123 1.2.556 2.367 1.086 3.49.53 1.127 1.17 2.21 1.763 3.336.58 1.13 1.095 2.31 1.392 3.554.146.621.234 1.258.23 1.896a5.976 5.976 0 0 1-.319 1.87c.329-1.227.206-2.514-.144-3.705-.354-1.197-.918-2.322-1.55-3.402-.629-1.082-1.314-2.15-1.904-3.286-.59-1.132-1.08-2.356-1.257-3.67a7.426 7.426 0 0 1 .002-1.983c.089-.65.242-1.274.37-1.883.126-.61.237-1.206.234-1.797a6.368 6.368 0 0 0-.213-1.76 8.14 8.14 0 0 0-.644-1.667 9.785 9.785 0 0 0-.994-1.5 10.862 10.862 0 0 0-1.27-1.288 10.598 10.598 0 0 0-1.482-1.035 13.483 13.483 0 0 0-3.392-1.356c-1.19-.31-2.42-.48-3.658-.582-2.485-.212-4.984-.078-7.482.182-2.497.27-4.997.653-7.52.891a47.611 47.611 0 0 1-3.795.19A27.969 27.969 0 0 1 0 1.936c.632.021 1.26.07 1.891.052.63.012 1.259-.019 1.887-.045a46.267 46.267 0 0 0 3.752-.389c2.493-.34 4.97-.819 7.486-1.15 2.51-.348 5.076-.506 7.629-.338z" id="M"/><path d="M9.59.301c3.258-.835 6.863-.003 9.968 3.354 7.964 8.608-.576 26.178-12.71 22.1C-4.441 21.96-.531 2.896 9.59.301z" id="O"/><path d="M7.806.07c2.248-.36 4.58.64 6.356 3.61 4.551 7.611-2.71 20.827-10.447 16.438C-3.485 16.033.82 1.193 7.805.07z" id="Q"/><path d="M102.092 0c5.112 0 9.295 4.182 9.295 9.293v49.04c0 5.112-4.183 9.294-9.295 9.294H39.004L14.661 85.429V67.627H9.295C4.183 67.627 0 63.445 0 58.333V9.293C0 4.182 4.183 0 9.295 0h92.797z" id="S"/><path d="M53.1 0c1.122 0 2.04.919 2.04 2.04v1.821c0 1.122-.918 2.04-2.04 2.04H2.04A2.046 2.046 0 0 1 0 3.861V2.04C0 .919.918 0 2.04 0H53.1z" id="U"/><path d="M16.032 0c1.123 0 2.04.919 2.04 2.04v1.821c0 1.122-.917 2.04-2.04 2.04H2.04A2.046 2.046 0 0 1 0 3.861V2.04C0 .919.918 0 2.04 0h13.992z" id="W"/><path d="M53.1 0c1.122 0 2.04.918 2.04 2.041v1.82c0 1.122-.918 2.04-2.04 2.04H2.04A2.046 2.046 0 0 1 0 3.861v-1.82C0 .918.918 0 2.04 0H53.1z" id="Y"/><path d="M16.032 0c1.123 0 2.04.918 2.04 2.041v1.82c0 1.122-.917 2.04-2.04 2.04H2.04A2.046 2.046 0 0 1 0 3.861v-1.82C0 .918.918 0 2.04 0h13.992z" id="aa"/><path d="M36.687 0c1.122 0 2.04.918 2.04 2.04v1.82c0 1.122-.918 2.04-2.04 2.04H2.04A2.046 2.046 0 0 1 0 3.86V2.04C0 .918.918 0 2.04 0h34.647z" id="ac"/><path d="M353.947 0c3.54 0 6.41 3.087 6.41 6.896 0 3.809-2.87 6.896-6.41 6.896H6.41C2.87 13.792 0 10.705 0 6.896 0 3.087 2.87 0 6.41 0h347.537z" id="ae"/></defs><g transform="translate(1)" fill="none" fill-rule="evenodd"><circle fill="#EEE" opacity=".332" cx="181" cy="154" r="154"/><g transform="translate(157.893 137.716)"><mask id="b" fill="#fff"><use xlink:href="#a"/></mask><path fill="#0047BB" mask="url(#b)" d="M-5-5h32.581v36.248H-5z"/></g><path d="M160.941 140.557c-7.282 7.491-.676 25.797 10.937 23.148 12.48-2.847 10.602-22.292-.682-25.484-4.401-1.245-7.91-.076-10.255 2.336z" stroke="#2A2B2C" stroke-width=".907"/><g transform="translate(152.493 87.306)"><mask id="d" fill="#fff"><use xlink:href="#c"/></mask><path fill="#2A2B2C" mask="url(#d)" d="M-5-5h98.158v93.48H-5z"/></g><g transform="translate(108.499 196.676)"><mask id="f" fill="#fff"><use xlink:href="#e"/></mask><path fill="#48D597" mask="url(#f)" d="M-5-5h76.376v107.398H-5z"/></g><path d="M164.69 246.051c8.732-13.454 14.165-29.968 6.578-45.16-.77-1.54-1.694-3.219-3.328-3.762-3.512-1.168-8.277.088-11.332 1.88-10.596 6.216-17.08 17.912-23.032 28.319-6.184 10.812-11.555 22.067-17.77 32.861-2.516 4.373-5.058 8.803-6.408 13.664-1.183 4.258-1.313 9.133.301 13.3 6.976 18.01 26.159-4.052 31.998-10.717a266.495 266.495 0 0 0 22.992-30.385z" stroke="#2A2B2C" stroke-width=".907"/><g transform="translate(159.456 114.669)"><mask id="h" fill="#fff"><use xlink:href="#g"/></mask><path fill="#000" mask="url(#h)" d="M-5-5h62.803v63.474H-5z"/></g><g transform="translate(148.932 184.97)"><mask id="j" fill="#fff"><use xlink:href="#i"/></mask><path fill="#48D597" mask="url(#j)" d="M-5-5h115.525v135.188H-5z"/></g><path d="M252.1 228.825c2.765-10.093 4.199-20.42-2.067-27.296-2.83-3.105-7.87-5.267-11.996-6.805-8.046-2.999-16.273-7.03-24.886-8.337-9.082-1.378-19.182-2.227-28.233-.256-5.748 1.251-11.127 3.568-16.268 6.067-6.9 3.355-11.815 5.61-14.028 12.51-2.457 7.654-3.947 15.517-4.779 23.422-2.434 23.136.787 46.332.71 69.48-.008 2.276.027 4.641 1.182 6.687 2.279 4.034 8.47 4.09 12.93 4.084l44.1-.066c6.115-.01 10.788.636 16.53 1.654 4.832.856 8.98-1.246 11.299-5.123 2.194-3.67 2.361-7.956 2.596-12.08a227.41 227.41 0 0 1 7.876-47.644c1.223-4.426 3.368-10.212 5.034-16.297z" stroke="#2A2B2C" stroke-width=".907"/><g transform="translate(199.382 195.373)"><mask id="l" fill="#fff"><use xlink:href="#k"/></mask><path fill="#48D597" mask="url(#l)" d="M-5-5h107.626v117.408H-5z"/></g><path d="M290.388 264.995c-2.179-4.058-4.397-8.09-6.63-12.117-3.843-6.932-7.728-13.845-11.523-20.835-6.14-11.31-13.043-22.462-22.736-31.105-1.54-1.373-3.15-2.688-4.966-3.665-3.972-2.136-8.861-2.494-13.102-.958-13.43 4.864-2.373 26.15 1.792 34.319a278.782 278.782 0 0 0 27.74 43.78c-7.995 1.12-15.932 2.642-23.837 4.335a299.806 299.806 0 0 1-16.85 3.108c-1.16.18-2.319.368-3.476.563-4.373.737-8.723 1.565-13.094 2.359-.928.168-1.891.352-2.65.952-1.417 1.12-1.781 3.314-1.65 5.12.256 3.478 1.869 7.927 4.559 10.013 1.935 1.5 4.508 1.919 6.814 1.917 5.45-.003 10.97-.763 16.408-1.142 5.692-.396 11.385-.79 17.079-1.172l34.5-2.328c3.362-.227 6.786-.47 9.934-1.72.382-.105.774-.226 1.176-.364 13.142-4.522 4.933-22.823.512-31.06z" stroke="#2A2B2C" stroke-width=".907"/><g transform="translate(117.745 291.034)"><mask id="n" fill="#fff"><use xlink:href="#m"/></mask><path fill="#BEBEBE" mask="url(#n)" d="M-5-5h64.529v16.14H-5z"/></g><path stroke="#2A2B2C" stroke-width=".907" d="M117.745 291.035h54.53v6.14h-54.53z"/><g transform="translate(14.551 216.568)"><mask id="p" fill="#fff"><use xlink:href="#o"/></mask><path fill="#BEBEBE" mask="url(#p)" d="M-5-5h121.04v89.755H-5z"/></g><path d="M125.515 291.617l-13.988-71.864a3.946 3.946 0 0 0-3.872-3.185H18.438c-1.325 0-2.46.655-3.171 1.627l-.716 1.893 13.323 73.05a3.946 3.946 0 0 0 3.872 3.185h89.898a3.945 3.945 0 0 0 3.871-4.706z" stroke="#2A2B2C" stroke-width=".907"/><g transform="translate(12.121 219.234)"><mask id="r" fill="#fff"><use xlink:href="#q"/></mask><path fill="#FFF" mask="url(#r)" d="M-5-5h120.874v87.941H-5z"/></g><path d="M29.83 297.175h89.218a3.945 3.945 0 0 0 3.871-4.706l-13.761-70.05a3.946 3.946 0 0 0-3.872-3.185H16.068a3.945 3.945 0 0 0-3.872 4.706l13.762 70.05a3.946 3.946 0 0 0 3.872 3.185z" stroke="#2A2B2C" stroke-width=".907"/><g transform="translate(56.2 247.914)"><mask id="t" fill="#fff"><use xlink:href="#s"/></mask><path fill="#BEBEBE" mask="url(#t)" d="M-5-5h27.29v27.111H-5z"/></g><path d="M56.34 256.47c.843 4.725 5.359 8.555 10.084 8.555 4.726 0 7.819-3.83 6.907-8.555-.911-4.726-5.426-8.556-10.085-8.556-4.658 0-7.75 3.83-6.907 8.556z" stroke="#2A2B2C" stroke-width=".907"/><g transform="translate(156.693 284.721)"><mask id="v" fill="#fff"><use xlink:href="#u"/></mask><path fill="#F8A17A" mask="url(#v)" d="M-5-5h62.127v31.84H-5z"/></g><path d="M203.786 299.577c-2.718.56-4.843 2.947-7.548 3.747-1.93.57-3.997.266-5.852-.43-1.706-.64-3.44-.982-5.192-1.543-1.364-.437-3.207-1.357-4.673-1.052-3.843.8-7.675 3.534-11.158 5.31-.783.398-1.64.81-2.505.646-.863-.164-1.583-1.21-1.092-1.94-1.002.936-2.329 2.808-3.945 2.082-.661-.297-1.06-1.172-.694-1.798-.555.61-1.139 1.239-1.906 1.542-.767.302-1.773.17-2.225-.519-.213-.325-.277-.724-.296-1.112-.066-1.333.336-2.65.892-3.864 2.744-5.986 8.947-10.427 14.226-13.994.933-.63 1.885-1.27 2.963-1.599.964-.294 1.987-.327 2.996-.331a59.733 59.733 0 0 1 19.299 3.118c1.342.452 2.82.067 4.158-.184.991-.185 2.026-.37 2.994-.087 1.082.316 1.922 1.174 2.581 2.089 1.213 1.682 2.14 3.91 1.995 6.023-.11 1.605-.231 3.337-2.12 3.674-.765.136-1.553.052-2.327.133a5.84 5.84 0 0 0-.571.089z" stroke="#2A2B2C" stroke-width=".907"/><g transform="translate(163.624 107.516)"><mask id="x" fill="#fff"><use xlink:href="#w"/></mask><path fill="#F8A17A" mask="url(#x)" d="M-5-5h64.757v106.333H-5z"/></g><path d="M212.4 173.394c.154-2.346.358-4.764.265-7.144 3.958-7.78 5.767-17.307 5.715-26.11-.033-5.496-.791-10.71-2.206-15.039-6.102-18.68-29.408-23.295-43.443-9.886-15.65 14.953-9.66 50.706 6.824 63.265a17.824 17.824 0 0 0 4.08 2.32c-.023.712-.054 1.423-.163 2.132-.254 1.646-.88 3.224-1.427 4.802-2.071 5.963-.132 11.635 6.318 14.366 4.629 1.959 11.236 2.395 16.583.68 3.999-1.283 7.293-3.769 8.527-7.72 1.12-3.586-.646-7.62-.96-11.238a68.577 68.577 0 0 1-.113-10.428z" stroke="#2A2B2C" stroke-width=".907"/><g transform="translate(170.771 101.396)"><mask id="z" fill="#fff"><use xlink:href="#y"/></mask><path fill="#2A2B2C" mask="url(#z)" d="M-5-5h64.238v66.869H-5z"/></g><g transform="translate(210.026 139.707)"><mask id="B" fill="#fff"><use xlink:href="#A"/></mask><path fill="#F8A17A" mask="url(#B)" d="M-5-5h23.758v31.9H-5z"/></g><g transform="translate(312.608 205.135)"><mask id="D" fill="#fff"><use xlink:href="#C"/></mask><path fill="#FFF" mask="url(#D)" d="M-5-5h21.578v60.219H-5z"/></g><g transform="translate(306.279 258.014)"><mask id="F" fill="#fff"><use xlink:href="#E"/></mask><path fill="#0047BB" mask="url(#F)" d="M-5-5h50.89v48.938H-5z"/></g><path d="M335.365 286.502a7.505 7.505 0 0 1-1.899-.243v-14.925a7.505 7.505 0 0 1 1.899-.242c4.194 0 7.595 3.45 7.595 7.705s-3.4 7.705-7.595 7.705zm0-19.681c-.647 0-1.28.055-1.899.156v-8.963H306.28v33.27a5.668 5.668 0 0 0 5.668 5.667h15.851a5.667 5.667 0 0 0 5.668-5.667v-.667c.619.101 1.252.156 1.899.156 6.52 0 11.804-5.362 11.804-11.976 0-6.614-5.285-11.976-11.804-11.976z" stroke="#2A2B2C" stroke-width=".907"/><g transform="translate(308.874 260.284)"><mask id="H" fill="#fff"><use xlink:href="#G"/></mask><path fill="#FFF" mask="url(#H)" d="M-5-5H7.94v31.888H-5z"/></g><path d="M157.867 120.69c-3.08-8.623-9.253-15.57-5.701-25.242 2.094-5.704 7.431-9.416 13.485-9.507 2.845-.043 5.695.668 8.167 2.083 2.952 1.69 4.867 4.45 8.3 5.375 8.048 2.168 16.383-3.968 24.076-5.397 7.618-1.416 15.72 1.084 19.446 8.354 1.47 2.868 2.095 6.18 4.028 8.76 3.227 4.307 9.507 5.78 12.061 10.518 4.171 7.736-4.398 18.908-8.76 24.85" stroke="#0B2D4E" stroke-width=".907"/><g transform="translate(179.148 160.126)"><mask id="J" fill="#fff"><use xlink:href="#I"/></mask><path fill="#0047BB" mask="url(#J)" d="M-5-5h47.485v26.033H-5z"/></g><path d="M214.757 160.126a18.96 18.96 0 0 1-5.202 5.733c-1.152.835-2.466 1.59-4.016 2.308-4.345 2.013-9.101 3.01-13.964 2.953a3.684 3.684 0 0 0-.823-1.797c-1.922-2.335-7.753-2.528-10.375-.278-3.16 2.711.433 6.126 3.33 6.78 2.316.521 4.61.622 6.467-1.11.454-.424.81-.91 1.057-1.43.244.006.488.014.731.014 5.042 0 9.974-1.068 14.49-3.16 1.679-.778 3.111-1.602 4.378-2.519a21.152 21.152 0 0 0 5.803-6.396l-1.876-1.098z" stroke="#2A2B2C" stroke-width=".907"/><g transform="translate(180.834 89.869)"><mask id="L" fill="#fff"><use xlink:href="#K"/></mask><path fill="#0047BB" mask="url(#L)" d="M-5-5h52.955v59.243H-5z"/></g><path d="M223.057 139.112l-2.7-.312c1.832-15.822 1.052-36.037-13.063-42.494-6.684-3.058-12.783-5.25-23.65-3.112-1.587-.213-2.81-.802-2.81-.802 9.827-4.8 20.376-1.857 27.59 1.443 15.6 7.136 16.567 28.56 14.633 45.277z" stroke="#2A2B2C" stroke-width=".907"/><g transform="translate(178.106 99.137)"><mask id="N" fill="#fff"><use xlink:href="#M"/></mask><path fill="#4D4D4D" mask="url(#N)" d="M-5-5h48.803v39.835H-5z"/></g><g transform="translate(208.739 137.477)"><mask id="P" fill="#fff"><use xlink:href="#O"/></mask><path fill="#0047BB" mask="url(#P)" d="M-5-5h32.653v36.36H-5z"/></g><path d="M218.329 137.779c-10.121 2.595-14.033 21.658-2.741 25.453 12.132 4.078 20.672-13.492 12.709-22.1-3.106-3.357-6.71-4.189-9.968-3.353z" stroke="#2A2B2C" stroke-width=".907"/><g transform="translate(213.841 140.155)"><mask id="R" fill="#fff"><use xlink:href="#Q"/></mask><path fill="#01397C" mask="url(#R)" d="M-5-5h25.572v30.99H-5z"/></g><path d="M221.647 140.226c-6.987 1.122-11.29 15.963-4.09 20.048 7.737 4.389 14.997-8.828 10.446-16.44-1.775-2.969-4.108-3.97-6.356-3.608z" stroke="#2A2B2C" stroke-width=".907"/><g transform="translate(250.613 64)"><mask id="T" fill="#fff"><use xlink:href="#S"/></mask><path fill="#48D597" mask="url(#T)" d="M-5-5h121.387v95.429H-5z"/></g><path d="M352.705 64h-92.797c-5.112 0-9.295 4.182-9.295 9.294v49.04c0 5.111 4.183 9.293 9.295 9.293h5.366v17.802l24.343-17.802h63.088c5.112 0 9.295-4.182 9.295-9.293v-49.04c0-5.112-4.183-9.294-9.295-9.294z" stroke="#2A2B2C" stroke-width=".907"/><g transform="translate(267.579 94.958)"><mask id="V" fill="#fff"><use xlink:href="#U"/></mask><path fill="#FFF" mask="url(#V)" d="M-5-5h65.14v15.901H-5z"/></g><g transform="translate(326.96 94.958)"><mask id="X" fill="#fff"><use xlink:href="#W"/></mask><path fill="#FFF" mask="url(#X)" d="M-5-5h28.073v15.901H-5z"/></g><g transform="translate(289.893 81.559)"><mask id="Z" fill="#fff"><use xlink:href="#Y"/></mask><path fill="#FFF" mask="url(#Z)" d="M-5-5h65.14v15.901H-5z"/></g><g transform="translate(267.579 81.559)"><mask id="ab" fill="#fff"><use xlink:href="#aa"/></mask><path fill="#FFF" mask="url(#ab)" d="M-5-5h28.073v15.901H-5z"/></g><g transform="translate(267.579 107.208)"><mask id="ad" fill="#fff"><use xlink:href="#ac"/></mask><path fill="#FFF" mask="url(#ad)" d="M-5-5h48.727v15.9H-5z"/></g><g transform="translate(0 297.402)"><mask id="af" fill="#fff"><use xlink:href="#ae"/></mask><path fill="#EEE" mask="url(#af)" d="M-5-5h370.358v23.792H-5z"/></g><path d="M353.947 311.194H6.41c-3.54 0-6.41-3.087-6.41-6.896 0-3.809 2.87-6.896 6.41-6.896h347.538c3.54 0 6.41 3.087 6.41 6.896 0 3.809-2.87 6.896-6.41 6.896z" stroke="#2A2B2C" stroke-width=".907"/></g></svg>